# xmcd
#
# Track frame offsets:
#	150
#	13050
#	24998
#	39481
#	52487
#	65318
#	81064
#	93509
#	110650
#	128577
#	145360
#	159849
#
# Disc length: 2318 seconds
#
# Revision: 0
# Processed by: cddbd v1.5.2PL0 Copyright (c) Steve Scherf et al.
# Submitted via: audiograbber 1.83.01
#
DISCID=9b090c0c
DTITLE=The Kingdom Heirs - We Will Stand Our Ground
DYEAR=2010
DGENRE=Gospel
TTITLE0=Heaven Is My Goal
TTITLE1=It's Real
TTITLE2=When Heavens Gates Swing Open Wide
TTITLE3=I'm Gonna Hit The Ground Running
TTITLE4=No Bones About It
TTITLE5=Where's John
TTITLE6=Just Preach Jesus
TTITLE7=We Will Stand Our Ground
TTITLE8=I'm Not Worried About Forever
TTITLE9=Tell Me Why
TTITLE10=I'm A Brand New Man
TTITLE11=If You Give The Devil An Inch
EXTD=
EXTT0=
EXTT1=
EXTT2=
EXTT3=
EXTT4=
EXTT5=
EXTT6=
EXTT7=
EXTT8=
EXTT9=
EXTT10=
EXTT11=
PLAYORDER=
